<svg width="18" height="18" viewBox="0 0 18 18" fill="none" xmlns="http://www.w3.org/2000/svg">
<path id="Vector 189" d="M2.17962 1.32038L2.79289 0.707107C3.18342 0.316583 3.81658 0.316582 4.20711 0.707106L6.79289 3.29289C7.18342 3.68342 7.18342 4.31658 6.79289 4.70711L5.00048 6.49952C4.7016 6.7984 4.6275 7.255 4.81653 7.63307C5.90929 9.81858 7.68142 11.5907 9.86693 12.6835C10.245 12.8725 10.7016 12.7984 11.0005 12.4995L12.7929 10.7071C13.1834 10.3166 13.8166 10.3166 14.2071 10.7071L16.7929 13.2929C17.1834 13.6834 17.1834 14.3166 16.7929 14.7071L16.1796 15.3204C14.0683 17.4317 10.7257 17.6693 8.33698 15.8777L7.12857 14.9714C5.38504 13.6638 3.83622 12.115 2.52857 10.3714L1.62226 9.16302C-0.169278 6.7743 0.0682687 3.43173 2.17962 1.32038Z" fill="#0F103F"/>
</svg>
