<svg width="24" height="24" viewBox="0 0 24 24" fill="none" xmlns="http://www.w3.org/2000/svg">
<g clip-path="url(#clip0_133_9624)">
<path d="M13 6C13.5523 6 14 5.55228 14 5V5C14 4.44772 13.5523 4 13 4H11C10.4477 4 10 4.44772 10 5V5C10 5.55228 10.4477 6 11 6H13ZM5.00001 8C4.44772 8 4.00001 8.44772 4.00001 9V18C4.00001 18.5523 4.44772 19 5.00001 19H19C19.5523 19 20 18.5523 20 18V9C20 8.44771 19.5523 8 19 8H5.00001ZM21 6C21.5523 6 22 6.44772 22 7V20C22 20.5523 21.5523 21 21 21H3.01001C2.45773 21 2.01001 20.5523 2.01001 20V7C2.01001 6.44772 2.45772 6 3.01001 6H7.00001C7.55229 6 8.00001 5.55228 8.00001 5V4C8.00001 2.9 8.90001 2 10 2H14C15.1 2 16 2.9 16 4V5C16 5.55228 16.4477 6 17 6H21Z" fill="#0F103F"/>
</g>
<defs>
<clipPath id="clip0_133_9624">
<rect width="24" height="24" fill="white"/>
</clipPath>
</defs>
</svg>
